<svg width="17" height="16" viewBox="0 0 17 16" fill="none" xmlns="http://www.w3.org/2000/svg">
<path d="M6.85998 11.1134C6.58665 11.1134 6.35998 10.8867 6.35998 10.6134V8.35339L6.23332 8.50005C6.04665 8.70672 5.73332 8.72005 5.52665 8.54005C5.31998 8.35339 5.30665 8.04005 5.48665 7.83339L6.48665 6.72005C6.62665 6.56672 6.84665 6.51339 7.03999 6.58672C7.23332 6.66005 7.35998 6.84672 7.35998 7.05339V10.6201C7.35998 10.8934 7.13998 11.1134 6.85998 11.1134Z" fill="#A8A8A8"/>
<path d="M8.50002 2.32007C8.44668 2.32007 8.39335 2.32674 8.34002 2.32674L8.88668 1.64674C9.06002 1.4334 9.02668 1.1134 8.80668 0.946736C8.59335 0.773402 8.28002 0.806736 8.10668 1.02674L6.79335 2.66674C6.78668 2.6734 6.78668 2.68007 6.78002 2.6934C6.76002 2.72007 6.74668 2.7534 6.73335 2.78007C6.72002 2.8134 6.70668 2.84007 6.70002 2.86674C6.69335 2.90007 6.69335 2.92674 6.69335 2.96007C6.69335 2.9934 6.69335 3.02674 6.69335 3.06007C6.69335 3.0734 6.69335 3.08007 6.69335 3.0934C6.70002 3.1134 6.71335 3.12674 6.72002 3.1534C6.73335 3.18674 6.74002 3.2134 6.76002 3.24007C6.78002 3.26674 6.80002 3.2934 6.82668 3.32007C6.84002 3.3334 6.85335 3.3534 6.86668 3.36674C6.87335 3.3734 6.88668 3.3734 6.89335 3.38007C6.91335 3.3934 6.93335 3.40674 6.96002 3.4134C6.99335 3.4334 7.02668 3.44674 7.06002 3.4534C7.08668 3.46674 7.10668 3.46674 7.13335 3.46674C7.15335 3.46674 7.16668 3.4734 7.18668 3.4734C7.20002 3.4734 7.22002 3.46674 7.23335 3.46007C7.25335 3.46007 7.27335 3.46007 7.30002 3.46007C7.72668 3.36007 8.12668 3.3134 8.50668 3.3134C11.5 3.3134 13.9333 5.74674 13.9333 8.74007C13.9333 11.7334 11.5 14.1667 8.50668 14.1667C5.51335 14.1667 3.08002 11.7334 3.08002 8.74007C3.08002 7.58007 3.46002 6.46007 4.18002 5.50007C4.34668 5.28007 4.30002 4.96674 4.08002 4.80007C3.86002 4.6334 3.54668 4.68007 3.38002 4.90007C2.52668 6.0334 2.08002 7.36007 2.08002 8.74007C2.08002 12.2801 4.96002 15.1667 8.50668 15.1667C12.0534 15.1667 14.9333 12.2867 14.9333 8.74007C14.9333 5.1934 12.04 2.32007 8.50002 2.32007Z" fill="#A8A8A8"/>
<path d="M9.83333 11.1133C8.82 11.1133 8 10.2933 8 9.27996V8.37996C8 7.36663 8.82 6.54663 9.83333 6.54663C10.8467 6.54663 11.6667 7.36663 11.6667 8.37996V9.27996C11.6667 10.2933 10.8467 11.1133 9.83333 11.1133ZM9.83333 7.5533C9.37333 7.5533 9 7.92663 9 8.38663V9.28663C9 9.74663 9.37333 10.12 9.83333 10.12C10.2933 10.12 10.6667 9.74663 10.6667 9.28663V8.38663C10.6667 7.92663 10.2933 7.5533 9.83333 7.5533Z" fill="#A8A8A8"/>
</svg>
