<svg width="28" height="28" viewBox="0 0 28 28" fill="none" xmlns="http://www.w3.org/2000/svg">
<circle cx="14" cy="14" r="14" fill="#007AFF" fill-opacity="0.2"/>
<path d="M11.3738 10.6181C11.126 10.6181 10.9204 10.4125 10.9204 10.1647V8.3509C10.9204 8.10302 11.126 7.89746 11.3738 7.89746C11.6217 7.89746 11.8273 8.10302 11.8273 8.3509V10.1647C11.8273 10.4125 11.6217 10.6181 11.3738 10.6181ZM15.9083 10.6181C15.6604 10.6181 15.4548 10.4125 15.4548 10.1647V8.3509C15.4548 8.10302 15.6604 7.89746 15.9083 7.89746C16.1561 7.89746 16.3617 8.10302 16.3617 8.3509V10.1647C16.3617 10.4125 16.1561 10.6181 15.9083 10.6181ZM13.6411 15.6604C13.9554 15.6604 14.1852 15.473 14.1852 15.1767C14.1852 14.8744 13.9554 14.6991 13.6411 14.6991C13.3267 14.6991 13.0969 14.8744 13.0969 15.1767C13.0969 15.473 13.3267 15.6604 13.6411 15.6604ZM13.6411 17.4197C14.0213 17.4197 14.3303 17.1682 14.3303 16.8575C14.3303 16.5473 14.0213 16.2952 13.6411 16.2952C13.2602 16.2952 12.9518 16.5473 12.9518 16.8575C12.9518 17.1682 13.2602 17.4197 13.6411 17.4197Z" fill="#007AFF"/>
<path d="M18.2178 9.86237C17.8188 9.56612 17.2444 9.85028 17.2444 10.3521V10.4125C17.2444 11.1199 16.7365 11.7729 16.0292 11.8454C15.213 11.9301 14.5237 11.2892 14.5237 10.4911V9.86237C14.5237 9.52985 14.2517 9.25778 13.9192 9.25778H13.3629C13.0304 9.25778 12.7584 9.52985 12.7584 9.86237V10.4911C12.7584 10.9688 12.5105 11.392 12.1356 11.6278C12.0812 11.664 12.0208 11.6943 11.9603 11.7245C11.9059 11.7547 11.8454 11.7789 11.7789 11.7971C11.7064 11.8212 11.6278 11.8394 11.5431 11.8454C11.4464 11.8575 11.3497 11.8575 11.2529 11.8454C11.1683 11.8394 11.0897 11.8212 11.0171 11.7971C10.8918 11.7553 10.772 11.6985 10.6604 11.6278C10.2795 11.3618 10.0377 10.9023 10.0377 10.4125V10.3521C10.0377 9.88656 9.54194 9.60845 9.14896 9.80796C9.14291 9.81401 9.13687 9.81401 9.13082 9.82005C9.10664 9.83214 9.0885 9.84424 9.06432 9.86237C9.04618 9.88051 9.022 9.8926 9.00386 9.91074C8.83457 10.0437 8.68343 10.1949 8.55646 10.3581C8.48996 10.4307 8.43554 10.5093 8.38718 10.5879C8.32577 10.6763 8.27119 10.7693 8.22394 10.866C8.21185 10.8781 8.2058 10.8841 8.2058 10.8962C8.16953 10.9688 8.13325 11.0413 8.10907 11.1199C8.09093 11.1501 8.08488 11.1743 8.07279 11.2046C8.03652 11.2952 8.01233 11.3859 7.98815 11.4766C7.96397 11.5613 7.94583 11.652 7.93374 11.7426C7.91175 11.8949 7.89964 12.0483 7.89746 12.2021V17.4983C7.89746 18.2792 8.20767 19.0281 8.75984 19.5803C9.31201 20.1325 10.0609 20.4427 10.8418 20.4427H16.4403C16.827 20.4427 17.2098 20.3665 17.567 20.2185C17.9243 20.0706 18.2489 19.8537 18.5223 19.5803C18.7957 19.3069 19.0125 18.9823 19.1605 18.6251C19.3085 18.2679 19.3846 17.885 19.3846 17.4983V12.2021C19.3846 11.2408 18.9252 10.4005 18.2178 9.86237ZM13.6411 18.1755C12.7039 18.1755 12.1296 17.7099 12.1296 16.9602C12.1296 16.5491 12.3412 16.1924 12.71 15.9808C12.444 15.7934 12.2686 15.5153 12.2686 15.1344C12.2686 14.3484 12.8974 13.9433 13.6411 13.9433C14.3847 13.9433 15.0074 14.3484 15.0074 15.1344C15.0074 15.5153 14.8381 15.7934 14.5661 15.9808C14.9409 16.1924 15.1525 16.5491 15.1525 16.9602C15.1525 17.7099 14.5721 18.1755 13.6411 18.1755Z" fill="#007AFF"/>
</svg>
