<svg width="17" height="16" viewBox="0 0 17 16" fill="none" xmlns="http://www.w3.org/2000/svg">
<path d="M13.6267 4.89989C13.46 4.67989 13.1467 4.63322 12.9267 4.79989C12.7066 4.96656 12.66 5.27989 12.8267 5.49989C13.5466 6.45989 13.9267 7.57989 13.9267 8.73989C13.9267 11.7332 11.4933 14.1666 8.49998 14.1666C5.50665 14.1666 3.07332 11.7332 3.07332 8.73989C3.07332 5.74656 5.50665 3.31989 8.49998 3.31989C8.88665 3.31989 9.27998 3.36656 9.70665 3.46656C9.72665 3.47322 9.74665 3.46656 9.77332 3.46656C9.78665 3.46656 9.80665 3.47989 9.81998 3.47989C9.83998 3.47989 9.85332 3.47322 9.87332 3.47322C9.89998 3.47322 9.91998 3.46656 9.93998 3.45989C9.97332 3.45322 10.0067 3.43989 10.04 3.41989C10.06 3.40656 10.0866 3.39989 10.1067 3.38656C10.1133 3.37989 10.1267 3.37989 10.1333 3.37322C10.1533 3.35989 10.16 3.33989 10.1733 3.32656C10.2 3.29989 10.22 3.27989 10.24 3.24656C10.26 3.21989 10.2667 3.18656 10.28 3.15989C10.2867 3.13989 10.3 3.11989 10.3067 3.09989C10.3067 3.08656 10.3067 3.07989 10.3067 3.06656C10.3133 3.03322 10.3133 2.99989 10.3067 2.96656C10.3067 2.93322 10.3067 2.90656 10.3 2.87322C10.2933 2.84656 10.28 2.81989 10.2667 2.78656C10.2533 2.75322 10.24 2.71989 10.22 2.69322C10.2133 2.67989 10.2133 2.67322 10.2067 2.66656L8.88665 1.01989C8.71332 0.806556 8.39998 0.773222 8.18665 0.939889C7.97332 1.11322 7.93998 1.42656 8.10665 1.63989L8.65332 2.31989C8.59998 2.31989 8.54665 2.31322 8.49332 2.31322C4.95332 2.31322 2.06665 5.19322 2.06665 8.73989C2.06665 12.2866 4.94665 15.1666 8.49332 15.1666C12.04 15.1666 14.92 12.2866 14.92 8.73989C14.9267 7.35989 14.4733 6.03322 13.6267 4.89989Z" fill="#A8A8A8"/>
<path d="M6.85998 11.1134C6.58665 11.1134 6.35998 10.8867 6.35998 10.6134V8.35339L6.23332 8.50005C6.04665 8.70672 5.73332 8.72005 5.52665 8.54005C5.31998 8.35339 5.30665 8.04005 5.48665 7.83339L6.48665 6.72005C6.62665 6.56672 6.84665 6.51339 7.03999 6.58672C7.23332 6.66005 7.35998 6.84672 7.35998 7.05339V10.6201C7.35998 10.8934 7.13998 11.1134 6.85998 11.1134Z" fill="#A8A8A8"/>
<path d="M9.83333 11.1133C8.82 11.1133 8 10.2933 8 9.27996V8.37996C8 7.36663 8.82 6.54663 9.83333 6.54663C10.8467 6.54663 11.6667 7.36663 11.6667 8.37996V9.27996C11.6667 10.2933 10.8467 11.1133 9.83333 11.1133ZM9.83333 7.5533C9.37333 7.5533 9 7.92663 9 8.38663V9.28663C9 9.74663 9.37333 10.12 9.83333 10.12C10.2933 10.12 10.6667 9.74663 10.6667 9.28663V8.38663C10.6667 7.92663 10.2933 7.5533 9.83333 7.5533Z" fill="#A8A8A8"/>
</svg>
