<svg width="25" height="25" viewBox="0 0 25 25" fill="none" xmlns="http://www.w3.org/2000/svg">
<path d="M2.5 13.1101H19.5" stroke="#161616" stroke-width="1.5" stroke-miterlimit="10" stroke-linecap="round" stroke-linejoin="round"/>
<path d="M19.5 10.78V17.93C19.47 20.78 18.69 21.5 15.72 21.5H6.28003C3.26003 21.5 2.5 20.7501 2.5 17.7701V10.78C2.5 8.08005 3.13 7.21005 5.5 7.07005C5.74 7.06005 6.00003 7.05005 6.28003 7.05005H15.72C18.74 7.05005 19.5 7.80005 19.5 10.78Z" stroke="#161616" stroke-width="1.5" stroke-linecap="round" stroke-linejoin="round"/>
<path d="M22.5 7.23V14.22C22.5 16.92 21.87 17.79 19.5 17.93V10.78C19.5 7.8 18.74 7.05 15.72 7.05H6.28003C6.00003 7.05 5.74 7.06 5.5 7.07C5.53 4.22 6.31003 3.5 9.28003 3.5H18.72C21.74 3.5 22.5 4.25 22.5 7.23Z" stroke="#161616" stroke-width="1.5" stroke-linecap="round" stroke-linejoin="round"/>
<path d="M5.75 18.3101H7.46997" stroke="#161616" stroke-width="1.5" stroke-miterlimit="10" stroke-linecap="round" stroke-linejoin="round"/>
<path d="M9.60986 18.3101H13.0499" stroke="#161616" stroke-width="1.5" stroke-miterlimit="10" stroke-linecap="round" stroke-linejoin="round"/>
</svg>
