<svg width="13" height="13" viewBox="0 0 13 13" fill="none" xmlns="http://www.w3.org/2000/svg">
<path d="M2.68503 10.2858V8.58247C2.68503 8.01663 3.12836 7.50913 3.75836 7.50913C4.32419 7.50913 4.83169 7.95247 4.83169 8.58247V10.2216C4.83169 11.3591 3.88669 12.3041 2.74919 12.3041C1.61169 12.3041 0.666694 11.3533 0.666694 10.2216V6.6283C0.602528 3.34997 3.19253 0.695801 6.47086 0.695801C9.74919 0.695801 12.3334 3.34997 12.3334 6.56413V10.1575C12.3334 11.295 11.3884 12.24 10.2509 12.24C9.11336 12.24 8.16836 11.295 8.16836 10.1575V8.5183C8.16836 7.95247 8.6117 7.44497 9.2417 7.44497C9.80753 7.44497 10.315 7.8883 10.315 8.5183V10.2858" stroke="#007AFF" stroke-linecap="round" stroke-linejoin="round"/>
</svg>
