<svg width="28" height="28" viewBox="0 0 28 28" fill="none" xmlns="http://www.w3.org/2000/svg">
<path d="M19.0854 11.906C18.4572 9.14191 16.0461 7.89746 13.9282 7.89746H13.9222C11.8102 7.89746 9.39312 9.13592 8.76492 11.9C8.06492 14.9872 9.95551 17.6017 11.6666 19.247C12.2731 19.8341 13.0841 20.1623 13.9282 20.1624C14.7418 20.1624 15.5555 19.8573 16.1837 19.247C17.8948 17.6017 19.7854 14.9932 19.0854 11.906ZM13.9282 14.9034C13.6807 14.9034 13.4356 14.8547 13.207 14.76C12.9783 14.6653 12.7705 14.5265 12.5955 14.3515C12.4205 14.1765 12.2817 13.9687 12.187 13.74C12.0923 13.5114 12.0435 13.2663 12.0435 13.0188C12.0435 12.7713 12.0923 12.5263 12.187 12.2976C12.2817 12.069 12.4205 11.8612 12.5955 11.6862C12.7705 11.5112 12.9783 11.3724 13.207 11.2777C13.4356 11.183 13.6807 11.1342 13.9282 11.1342C14.428 11.1342 14.9074 11.3328 15.2608 11.6862C15.6142 12.0396 15.8128 12.519 15.8128 13.0188C15.8128 13.5187 15.6142 13.998 15.2608 14.3515C14.9074 14.7049 14.428 14.9034 13.9282 14.9034Z" fill="#007AFF"/>
<circle cx="14" cy="14" r="14" fill="#007AFF" fill-opacity="0.2"/>
</svg>
