<svg width="25" height="25" viewBox="0 0 25 25" fill="none" xmlns="http://www.w3.org/2000/svg">
<path d="M9.30005 22.5H15.3C20.3 22.5 22.3 20.5 22.3 15.5V9.5C22.3 4.5 20.3 2.5 15.3 2.5H9.30005C4.30005 2.5 2.30005 4.5 2.30005 9.5V15.5C2.30005 20.5 4.30005 22.5 9.30005 22.5Z" stroke="#161616" stroke-width="1.5" stroke-linecap="round" stroke-linejoin="round"/>
<path d="M9.40002 12.5V11.02C9.40002 9.10999 10.75 8.33999 12.4 9.28999L13.68 10.03L14.96 10.77C16.61 11.72 16.61 13.28 14.96 14.23L13.68 14.97L12.4 15.71C10.75 16.66 9.40002 15.88 9.40002 13.98V12.5Z" stroke="#161616" stroke-width="1.5" stroke-miterlimit="10" stroke-linecap="round" stroke-linejoin="round"/>
</svg>
