<svg width="13" height="13" viewBox="0 0 13 13" fill="none" xmlns="http://www.w3.org/2000/svg">
<path d="M5.67075 10.836V2.15395C5.67075 1.3297 5.32273 1 4.44353 1H2.22722C1.34802 1 1 1.3297 1 2.15395V10.836C1 11.6603 1.34802 11.99 2.22722 11.99H4.44353C5.32273 11.99 5.67075 11.6603 5.67075 10.836ZM11.99 10.836V2.15395C11.99 1.3297 11.642 1 10.7628 1H8.54647C7.67337 1 7.31925 1.3297 7.31925 2.15395V10.836C7.31925 11.6603 7.66727 11.99 8.54647 11.99H10.7628C11.642 11.99 11.99 11.6603 11.99 10.836Z" stroke="black" stroke-linecap="round" stroke-linejoin="round"/>
</svg>
