<svg width="40" height="40" viewBox="0 0 40 40" fill="none" xmlns="http://www.w3.org/2000/svg">
<rect width="40" height="40" rx="20" fill="#007AFF"/>
<path d="M19.1 24.74V15.26C19.1 14.36 18.72 14 17.76 14H15.34C14.38 14 14 14.36 14 15.26V24.74C14 25.64 14.38 26 15.34 26H17.76C18.72 26 19.1 25.64 19.1 24.74Z" stroke="white" stroke-linecap="round" stroke-linejoin="round"/>
<path d="M26 24.74V15.26C26 14.36 25.62 14 24.66 14H22.24C21.2867 14 20.9 14.36 20.9 15.26V24.74C20.9 25.64 21.28 26 22.24 26H24.66C25.62 26 26 25.64 26 24.74Z" stroke="white" stroke-linecap="round" stroke-linejoin="round"/>
</svg>
