<svg width="25" height="25" viewBox="0 0 25 25" fill="none" xmlns="http://www.w3.org/2000/svg">
<path d="M12.26 11.37C12.16 11.36 12.04 11.36 11.93 11.37C9.55003 11.29 7.66003 9.34 7.66003 6.94C7.66003 4.49 9.64003 2.5 12.1 2.5C14.55 2.5 16.54 4.49 16.54 6.94C16.53 9.34 14.64 11.29 12.26 11.37Z" stroke="#161616" stroke-width="1.5" stroke-linecap="round" stroke-linejoin="round"/>
<path d="M7.25995 15.06C4.83995 16.68 4.83995 19.32 7.25995 20.93C10.0099 22.77 14.5199 22.77 17.2699 20.93C19.6899 19.31 19.6899 16.67 17.2699 15.06C14.5299 13.23 10.0199 13.23 7.25995 15.06Z" stroke="#161616" stroke-width="1.5" stroke-linecap="round" stroke-linejoin="round"/>
</svg>
