<svg width="6" height="11" viewBox="0 0 6 11" fill="none" xmlns="http://www.w3.org/2000/svg">
<path d="M1.19752 10.5575C1.08668 10.5575 0.97585 10.5167 0.88835 10.4292C0.719183 10.26 0.719183 9.98001 0.88835 9.81084L4.69168 6.00751C4.97168 5.72751 4.97168 5.27251 4.69168 4.99251L0.88835 1.18918C0.719183 1.02001 0.719183 0.740011 0.88835 0.570845C1.05752 0.401678 1.33752 0.401678 1.50668 0.570845L5.31002 4.37418C5.60752 4.67168 5.77668 5.07418 5.77668 5.50001C5.77668 5.92584 5.61335 6.32834 5.31002 6.62584L1.50668 10.4292C1.41918 10.5108 1.30835 10.5575 1.19752 10.5575Z" fill="#848484"/>
</svg>
