<svg width="28" height="28" viewBox="0 0 28 28" fill="none" xmlns="http://www.w3.org/2000/svg">
<circle cx="14" cy="14" r="14" fill="#007AFF" fill-opacity="0.2"/>
<path d="M14 9.09859C10.8133 9.09859 8.21997 11.6919 8.21997 14.8786C8.21997 18.0653 10.8133 20.6653 14 20.6653C17.1866 20.6653 19.78 18.0719 19.78 14.8853C19.78 11.6986 17.1866 9.09859 14 9.09859ZM14.5 14.6653C14.5 14.9386 14.2733 15.1653 14 15.1653C13.7266 15.1653 13.5 14.9386 13.5 14.6653V11.3319C13.5 11.0586 13.7266 10.8319 14 10.8319C14.2733 10.8319 14.5 11.0586 14.5 11.3319V14.6653ZM15.9266 8.29992H12.0733C11.8066 8.29992 11.5933 8.08659 11.5933 7.81992C11.5933 7.55325 11.8066 7.33325 12.0733 7.33325H15.9266C16.1933 7.33325 16.4066 7.54659 16.4066 7.81325C16.4066 8.07992 16.1933 8.29992 15.9266 8.29992Z" fill="#007AFF"/>
</svg>
